<?xml version="1.0" encoding="utf-8"?>
<!-- Svg Vector Icons : http://www.onlinewebfonts.com/icon -->
<!DOCTYPE svg PUBLIC "-//W3C//DTD SVG 1.1//EN" "http://www.w3.org/Graphics/SVG/1.1/DTD/svg11.dtd">
<svg version="1.1" xmlns="http://www.w3.org/2000/svg" xmlns:xlink="http://www.w3.org/1999/xlink" x="0px" y="0px" viewBox="0 0 1000 1000" enable-background="new 0 0 1000 1000" xml:space="preserve">
<metadata> Svg Vector Icons : http://www.onlinewebfonts.com/icon </metadata>
<g><g transform="translate(0.000000,511.000000) scale(0.100000,-0.100000)"><path d="M4035.3,4442.6c-529-91.9-921.1-492.2-996.7-1019.2c-10.2-73.5-20.4-224.7-20.4-332.9v-200.2h398.3h398.3v241c0,273.7,28.6,347.2,169.5,461.6l79.7,63.3h935.4h935.4l79.7-63.3c140.9-114.4,169.5-187.9,169.5-461.6v-241h400.3h402.4l-10.2,292.1c-10.2,253.3-20.4,316.6-71.5,467.7c-130.7,377.9-416.7,649.5-804.7,765.9c-94,28.6-251.2,34.7-1039.6,38.8C4550,4456.9,4088.4,4452.8,4035.3,4442.6z"/><path d="M1384.1,2451.2c-288-57.2-582.1-210.4-798.6-412.6c-230.8-216.5-420.7-586.2-467.7-915c-16.3-116.4-20.4-727.1-16.3-2103.7l6.1-1940.3l47-153.2C350.6-3710.9,865.4-4144,1516.9-4219.5c122.5-14.3,1337.8-18.4,3615.2-14.3c3868.4,8.2,3511-8.2,3880.7,169.5c326.8,157.3,567.8,402.4,727.1,735.3c159.3,332.9,149.1,179.7,157.3,2359c8.2,2120.1,6.1,2130.3-106.2,2430.5c-194,518.8-633.2,884.4-1192.8,992.6C8383.7,2494,1588.4,2492,1384.1,2451.2z M8040.5,798.8c79.6-77.6,96-153.2,51.1-247.1c-67.4-143,161.3-132.8-3096.4-132.8c-2886,0-2949.3,0-3012.6,40.8c-91.9,55.1-126.6,171.6-77.6,271.6c69.4,147.1-167.5,136.9,3118.8,130.7l2955.4-4.1L8040.5,798.8z M8020.1-696.3c26.6-18.4,61.3-65.3,77.6-104.2c36.8-87.8,8.2-190-69.5-251.2c-51.1-40.8-75.6-40.8-3031-40.8H2021.4l-63.3,53.1c-77.6,65.4-100.1,163.4-55.1,249.2c71.5,136.8-181.8,126.6,3096.4,126.6C7713.7-663.6,7977.2-665.7,8020.1-696.3z M8016-2228.1c30.6-24.5,69.4-75.6,85.8-116.4c24.5-65.4,22.5-81.7-10.2-151.2c-22.5-42.9-61.3-87.8-89.9-102.1c-65.4-32.7-5908.8-38.8-5992.6-6.1c-28.6,10.2-71.5,49-94,85.8c-79.7,126.6-6.1,288,145,320.7c38.8,8.2,1380.7,14.3,2984,14.3l2914.6-2L8016-2228.1z"/></g></g>
</svg>