<?xml version="1.0" encoding="utf-8"?>
<!-- Svg Vector Icons : http://www.onlinewebfonts.com/icon -->
<!DOCTYPE svg PUBLIC "-//W3C//DTD SVG 1.1//EN" "http://www.w3.org/Graphics/SVG/1.1/DTD/svg11.dtd">
<svg version="1.1" xmlns="http://www.w3.org/2000/svg" xmlns:xlink="http://www.w3.org/1999/xlink" x="0px" y="0px" viewBox="0 0 1000 1000" enable-background="new 0 0 1000 1000" xml:space="preserve">
<metadata> Svg Vector Icons : http://www.onlinewebfonts.com/icon </metadata>
<g><path d="M609.7,421.2c138.8,0,194.2-59.7,194.2-205.6C803.9,69.1,748.5,10,609.7,10c-138.7,0-194,59.1-194,205.6C415.8,361.5,471.1,421.2,609.7,421.2z"/><path d="M849.9,480H333.8c-3.9,6.9-8.6,12.8-13.7,17.4l-33.4,32.4c-11.7,12.2-10.6,27.1,3.1,44.4c20.4,25,48.1,54.6,78,83.5l0.5,0.5l0.5,0.6c28.6,29.6,58,57,82.5,76.9c9.6,7.8,18.5,11.5,26.5,11.5c6.8,0,12.7-2.7,18-8.2l31.2-32c6.4-7.1,24.3-24.1,51.3-24.1c14.5,0,28.7,5.2,41.1,15.2l123.1,100.4h221.6V594.4C964.3,529.1,915.4,480,849.9,480z"/><path d="M748.4,852.8l-66.3-54.1l0,0l-86.7-70.5c-5.4-4.5-11.2-6.7-16.8-6.7c-10.6,0-19.3,7.1-23,11.5L523.6,766c-12.9,12.9-28.7,19.6-45.6,19.6s-33.9-6.7-50.5-20.1c-25.9-20.8-56.6-49.5-86.2-80.2c-30.9-29.9-59.8-60.7-81.1-87c-1.8-2.2-3.5-4.5-4.9-6.7l0,0c-21.1-31-19.8-64.3,4.3-89l34.6-33.5c0.2-0.2,19.9-18.1,3.6-38.4L173,277.3c-5.4-6.6-13.4-10.4-21.7-10.4c-5.3,0-10.8,1.6-14.1,3.6l-4.6,3.5l-50.3,47.2l-3.6,3.8c-14.7,19-53.4,84.8-40.2,135.4c11.7,44.9,92.6,189.2,205.3,304.7l16.7,16.7c115.7,113,260.1,193.9,304.9,205.5c7,1.8,14.6,2.8,22.6,2.8c41.6,0,89.9-25.4,111.5-41.9l4-3.5l47.1-50l3.8-4.6C762.3,877.8,759.6,861.9,748.4,852.8z"/></g>
</svg>