<?xml version="1.0" encoding="utf-8"?>
<!-- Svg Vector Icons : http://www.onlinewebfonts.com/icon -->
<!DOCTYPE svg PUBLIC "-//W3C//DTD SVG 1.1//EN" "http://www.w3.org/Graphics/SVG/1.1/DTD/svg11.dtd">
<svg version="1.1" xmlns="http://www.w3.org/2000/svg" xmlns:xlink="http://www.w3.org/1999/xlink" x="0px" y="0px" viewBox="0 0 1000 1000" enable-background="new 0 0 1000 1000" xml:space="preserve">
<metadata> Svg Vector Icons : http://www.onlinewebfonts.com/icon </metadata>
<g><path d="M10,901.5c0-267.7,0-535.3,0-803c0.5-2.2,1.3-4.3,1.6-6.6C17,53.7,47,21.1,84.7,12.7c4.4-1,8.9-1.8,13.3-2.7c268,0,536.1,0,804.1,0c0.6,0.2,1.1,0.5,1.7,0.6c4.1,0.7,8.3,1.2,12.3,2.2c38.2,10,61.7,34.6,72,72.4c1,3.6,1.3,7.4,2,11.2c0,269.3,0,538.6,0,807.9c-0.4,2.4-0.8,4.8-1.3,7.1c-8.5,38.7-31.8,63.8-69.6,75.3c-4.8,1.5-9.9,2.2-14.8,3.3c-269.1,0-538.3,0-807.4,0c-1.6-0.3-3.1-0.8-4.7-1c-39.6-5.7-72.8-37.7-80-76.9C11.5,908.5,10.7,905,10,901.5z M491.6,544.4c0.5-0.3,0.9-0.5,1.4-0.8c14.8-7.9,28.8-17.1,42.1-27.2c33.3-25.2,62.3-54.8,89.1-86.6c43-51,80-106.2,111.8-164.8c10.7-19.7,20.8-39.6,28.4-60.7c2.1-5.8,4.1-11.7,4-18c-0.2-7.4-4.4-13.1-11.3-14.4c-3-0.6-6.4-0.4-9.4,0.1c-11.1,2-21.4,6.4-31.7,10.8c-33.1,14.4-64.5,32-95,51.2C562.2,271,507,312.6,458.8,362.9c-20.5,21.3-39.1,44.1-54.4,69.5c-3.1,5.2-6.1,10.5-9.2,16c-0.8-0.8-1.5-1.4-2.2-2.1c-4.4-4.3-6.6-4.4-11,0c-11.1,11.1-22.1,22.1-33.2,33.2c-3.9,3.9-3.9,6.5,0,10.4c2.8,2.8,5.6,5.6,8.5,8.4c-0.5,0.5-0.6,0.8-0.8,0.9c-14.7,11.8-30,22.8-46.5,31.9c-7.9,4.4-16,8.4-24.9,10.2c-3.8,0.8-7.6,1.2-11-1.3c-4.9-3.5-8.1-3-10.8,2.3c-3.2,6.4-6.2,12.9-8.8,19.6c-22.1,57.4-41.8,115.7-61.8,173.8c-0.9,2.7-1.2,5.1,1,7.3c2.2,2.2,4.7,1.8,7.3,0.9c19.3-6.7,38.7-13.1,58-20c38.9-13.9,77.8-27.9,116.6-42.2c7-2.6,13.8-6.1,20.4-9.6c3.4-1.8,3.8-5.8,1.4-8.6c-2.5-2.9-3.2-6.3-2.3-9.7c1.3-5.4,2.7-10.8,4.9-15.8c8.2-18.5,19.8-35,31.9-51c2-2.6,4.1-5.2,6.4-8c3,3.1,5.7,5.9,8.5,8.7c3.9,3.9,6.5,3.9,10.4,0c11-11,22-22,33-33C494,550.7,494.3,549.3,491.6,544.4z M249.3,774.1c0.8,1,1.4,1.8,2.1,2.5c7.4,7,14.3,14.6,22.3,20.8c42.5,33.2,90.9,46.2,144.3,40.5c38.7-4.1,74.6-17.4,108-37.1c21.2-12.6,39.3-29,56.8-46.3c26.3-26,50.7-53.7,74.6-81.9c14.1-16.7,28.3-33.3,45-47.5c16.9-14.4,35.8-25.2,57.6-30.3c14.9-3.5,30-4.4,45.3-4.1c2.1,0,2.8-0.8,3.3-2.6c0.5-1.8-0.4-2.4-1.7-3.1c-26.2-13.4-53.8-17.4-82.6-11.3c-22.9,4.8-43,15.5-61.5,29.4c-22.8,17-42,37.6-59.2,60.1c-13.6,17.8-26.7,36-40.1,53.9c-27,36.1-60.4,64.2-102.2,82c-29.4,12.5-59.7,20.2-91.9,19c-38-1.4-72.2-13.8-103-36c-4.7-3.4-9.1-7.2-13.7-10.9C251.6,772.1,250.6,773,249.3,774.1z"/><path d="M733.2,215.8c-0.7,1.8-1.3,3.7-2.1,5.5c-16.4,34.1-35.7,66.5-56.4,98c-23.7,36.2-49.4,70.9-77.9,103.5c-27.1,31-56.1,59.9-90.2,83.2c-10,6.8-20.9,12.5-31.3,18.8c-1.8,1.1-2.9,0.9-4.4-0.6c-18.5-18.6-37-37.1-55.6-55.6c-1.4-1.4-1.6-2.4-0.7-4.2c11.2-23.2,25.9-44,42.4-63.6c29-34.2,62.3-63.7,97.8-90.8c48.2-36.9,99.3-69.3,153.7-96.4c4.1-2,8.1-4,12.3-5.8C726.7,205.2,732.8,209.4,733.2,215.8z"/><path d="M210.9,717.4c19-55.8,37.7-111.6,59.5-166.3c13.6,3.9,25.4-0.8,36.9-6.2c19.8-9.3,37.3-22.2,54.4-35.7c0.8-0.6,1.6-1.2,2.2-1.7c21.7,21.7,43.3,43.3,65.2,65.1c-1,1.3-2.2,2.7-3.4,4.2c-12.8,16.2-24.7,32.9-33.8,51.5c-4.1,8.4-7.6,17-8,26.4c-0.2,3.6,0.5,7.2,0.9,11.5c-54,21.7-109.8,40.3-165.5,59.2c28.7-28.5,57.3-56.9,86.1-85.4c2.7,0.8,5.9,2.2,9.2,2.7c13.9,2.3,27-7.7,28.5-21.8c1.6-14.4-8.9-26.7-23.8-27.7c-13.4-1-25.7,10.1-25.8,23.9c0,4,1.1,8.1,2.5,11.8c0.8,2.2,0.5,3.1-1,4.6c-27.4,27.3-54.8,54.6-82.2,82C212.2,716.1,211.6,716.7,210.9,717.4z"/></g>
</svg>