<?xml version="1.0" encoding="utf-8"?>
<!-- Svg Vector Icons : http://www.onlinewebfonts.com/icon -->
<!DOCTYPE svg PUBLIC "-//W3C//DTD SVG 1.1//EN" "http://www.w3.org/Graphics/SVG/1.1/DTD/svg11.dtd">
<svg version="1.1" xmlns="http://www.w3.org/2000/svg" xmlns:xlink="http://www.w3.org/1999/xlink" x="0px" y="0px" viewBox="0 0 1000 1000" enable-background="new 0 0 1000 1000" xml:space="preserve">
<metadata> Svg Vector Icons : http://www.onlinewebfonts.com/icon </metadata>
<g><path d="M959.8,71.4c-19.4-41-52.5-61-101.1-61.1c-20.6-1.9-44.4,7.8-62.1,24.9c-16.2,15.7-25,22.9-40.9,38.6c-5.2-4-14.7-4.9-18.4-4.9H166.5C94.2,68.9,32,140.6,32,212.9v652C32,937.2,94.2,990,166.5,990h570.8c72.3,0,123.2-52.8,123.2-125.1V256.6c27.4-23.1,50.7-46.8,75-71.2C965.1,155.7,977.5,108.8,959.8,71.4z M782.1,191.4c-23.9,24.2-48.6,49.3-73.9,72.8c-7.5,7-20.7,11.9-28.2,10.3c-9.3-2-19.5-12-24-20.6c-6.1-11.7,1.9-23.4,9.7-31.2c24-23.9,48-47.9,71.9-71.8c10.7-10.7,21.4-21.3,32-32c25.4,8.7,33.3,15.8,44.7,39.8C806,167.3,782.1,191.4,782.1,191.4z M793.9,94.7c8-8,16-16,24-23.9c13.7-13.6,30.7-21.1,48.1-21.1c15.7,0,30.8,6.3,42.6,17.6c13,12.6,20.3,28.7,20.4,45.2c0.2,17.1-7.3,34-21,47.8c-13.5,13.5-34.4,31.2-47.8,44.6C860.2,143.2,834.4,114.2,793.9,94.7z M825.3,864.9c0,54.8-33.1,93.8-87.9,93.8H166.5c-54.8,0-101.9-39-101.9-93.8v-652c0-54.8,47.6-114.4,102.4-114.4l559.6,0.7c-33.3,33.8-67.1,64.9-94.7,93.5c-25.3,26.1-24,71.9,3,99.4c13.2,13.4,31.5,23,50.4,23c16.5,0,32.1-5.1,43.9-15.9c24.5-22.7,48.4-46.4,71.5-69.8c10.1-10.3,17-19.3,24.5-23.5l-0.2,25.7c-63.8,68.9-131.1,137.1-199.1,203.6c-9.4,9.2-22.5,16.6-39,19.2c-22.5,3.6-47.1-11.7-57.6-34c-12.5-26.4-8.8-50.1,9.5-70.6c16.2-18.2,34.4-35.5,51.6-52.2c5.8-5.6,8.7-10.6,8.7-15.7c0-4.8-2.4-9.6-7.6-14.6c-10-9.8-18.6-9.6-29,1.2c-7.2,7.4-14.7,14.9-22,22c-10.3,10.1-20.8,20.5-30.8,31.3c-37.7,40.7-34.9,106,6.2,145.5c17.9,17.3,43.8,27.2,71,27.2c27.5,0,47.6-10.1,65.3-27.7c56.2-55.9,109-114.9,173-178.4V864.9L825.3,864.9z"/><path d="M127.2,577.7h461.9v32.6H127.2V577.7z"/><path d="M127.2,674.3h461.9V703H127.2V674.3z"/><path d="M127.2,766.9h461.9v32.6H127.2V766.9z"/><path d="M668.7,577.7h47v32.6h-47V577.7z"/><path d="M668.7,674.3h47V703h-47V674.3z"/><path d="M668.7,766.9h47v32.6h-47V766.9z"/></g>
</svg>