<?xml version="1.0" encoding="utf-8"?>
<!-- Svg Vector Icons : http://www.onlinewebfonts.com/icon -->
<!DOCTYPE svg PUBLIC "-//W3C//DTD SVG 1.1//EN" "http://www.w3.org/Graphics/SVG/1.1/DTD/svg11.dtd">
<svg version="1.1" xmlns="http://www.w3.org/2000/svg" xmlns:xlink="http://www.w3.org/1999/xlink" x="0px" y="0px" viewBox="0 0 1000 1000" enable-background="new 0 0 1000 1000" xml:space="preserve">
<metadata> Svg Vector Icons : http://www.onlinewebfonts.com/icon </metadata>
<g><g transform="translate(0.000000,168.000000) scale(0.100000,-0.100000)"><path d="M168.5,138.8c-59.9-59.9-68.5-368-68.5-2756V-5309l94.2-64.2c85.6-59.9,453.6-68.5,3145.4-68.5h3051.3v256.8v256.8l-2760.3,8.6c-2191.1,8.6-2768.8,25.7-2811.6,68.5c-42.8,42.8-59.9,415.1-68.5,1664.7c-8.6,1395.1-4.3,1621.9,55.6,1707.5l64.2,102.7h3397.9c3231,0,3397.9-4.3,3462.1-77c64.2-68.5,72.8-201.1,72.8-984.3v-907.3h321h321v1733.2c0,1664.7-4.3,1733.2-81.3,1776c-55.6,30-1416.5,42.8-4108.3,42.8C656.3,207.3,228.4,198.7,168.5,138.8z M4139.8-396.1c141.2-64.2,184-261.1,94.2-402.3l-68.5-107h-1639c-1219.7,0-1651.9,12.8-1690.4,51.4c-30,29.9-51.4,124.1-51.4,209.7c0,295.3-8.6,295.3,1720.4,295.3C3557.8-349,4067.1-366.1,4139.8-396.1z M6425.1-417.5c102.7-72.7,128.4-261,51.4-406.5c-38.5-68.5-94.2-81.3-406.5-81.3c-398,0-449.4,34.2-449.4,295.3c0,184,132.7,261,449.4,261C6236.8-349,6365.2-374.7,6425.1-417.5z M7743.1-456c81.3-107,77.1-273.9-12.8-372.3c-55.6-59.9-132.6-77-398-77c-372.3,0-427.9,34.2-427.9,261.1c0,239.7,115.6,303.8,487.9,286.7C7619.1-370.4,7696.1-391.8,7743.1-456z"/><path d="M4152.7-3032.3l-402.3-1005.7l98.4-42.8c55.6-25.7,111.3-38.5,119.8-30c55.6,51.4,796,1968.6,778.9,2002.8c-12.9,21.4-59.9,47.1-107,59.9C4567.8-2030.9,4507.9-2150.7,4152.7-3032.3z"/><path d="M2881.7-2826.8c-547.8-252.5-620.5-299.6-620.5-389.4c0-94.2,72.8-136.9,641.9-389.4l641.9-286.7l12.8,107c8.6,59.9,4.3,128.4-4.3,154c-8.6,30-196.9,128.4-410.8,218.3c-214,89.8-389.4,179.7-389.4,196.8s179.7,107,398,201.1c385.2,166.9,393.7,175.4,406.5,329.5c8.6,85.6,0,154.1-21.4,149.8C3519.3-2535.8,3224-2668.5,2881.7-2826.8z"/><path d="M5000-2565.8c-12.8-12.9-21.4-72.8-21.4-137c0-102.7,38.5-132.7,406.5-299.6c222.5-102.7,406.6-196.9,406.6-214s-179.7-107-393.7-205.4c-376.6-166.9-398-179.7-398-303.9c0-72.7,17.1-136.9,34.2-136.9c21.4-4.3,312.4,115.5,650.5,265.3c556.3,248.2,620.5,282.5,620.5,380.9c0,98.4-59.9,132.7-641.9,389.4C5312.4-2668.5,5012.8-2553,5000-2565.8z"/><path d="M7503.5-4016.5c0-17.1,81.3-111.3,179.7-214l175.4-179.7l-115.5-154.1c-68.5-85.6-166.9-175.4-222.5-201.1c-94.2-42.8-124.1-30-269.6,111.3c-94.1,89.8-184,154-209.7,136.9c-51.4-29.9,8.6-410.8,81.3-530.6c94.2-149.8,350.9-265.3,586.3-265.3c282.5,0,363.8-85.6,222.5-235.4c-81.3-85.6-141.2-107-299.6-107c-226.8,0-457.9-128.4-543.5-299.6c-30-59.9-55.6-192.6-55.6-295.3v-184l171.2,154.1c94.2,85.6,188.3,154,205.4,154c17.1,0,107-77,201.1-171.2l162.6-166.9l-166.9-184l-166.9-184l179.7-12.8c350.9-25.7,586.3,192.6,594.8,560.6c8.6,166.9,34.3,235.4,119.9,321l111.3,111.3l419.4-415.1c265.3-256.8,457.9-415.1,513.5-415.1c149.8,0,321,179.7,321,338.1c0,115.5-59.9,201.1-398,539.2l-402.3,402.3l102.7,111.3c77,85.6,141.2,107,295.3,107c248.2,0,462.2,124.1,543.5,321c59.9,149.8,81.3,406.6,34.3,406.6c-17.1,0-94.2-55.6-175.5-128.4c-77-68.4-166.9-128.4-196.8-128.4c-77,0-329.5,269.6-329.5,346.6c0,34.3,59.9,119.9,128.4,188.3c166.9,158.3,162.6,192.6-21.4,192.6c-338.1,0-577.7-252.5-577.7-603.4c0-154.1-21.4-218.3-107-295.3c-98.4-94.2-115.6-94.2-175.4-34.2c-42.8,42.8-68.5,154-72.8,295.3c-12.8,393.7-269.6,637.7-671.9,637.7C7580.5-3986.6,7503.5-3999.4,7503.5-4016.5z M9489.2-6194.8c128.4-128.4,55.6-316.7-124.1-316.7c-256.8,0-252.5,376.6,8.6,385.2C9399.3-6126.3,9454.9-6156.3,9489.2-6194.8z"/></g></g>
</svg>